Coordinates
version=1
nRows=13
nColumns=40
inDegrees=yes

Units are S.I. units (second, meters, Newtons, ...)
Angles are in degrees.

endheader
time	pelvis_tilt	pelvis_list	pelvis_rotation	pelvis_tx	pelvis_ty	pelvis_tz	hip_flexion_r	hip_adduction_r	hip_rotation_r	knee_angle_r	knee_angle_r_beta	ankle_angle_r	subtalar_angle_r	mtp_angle_r	hip_flexion_l	hip_adduction_l	hip_rotation_l	knee_angle_l	knee_angle_l_beta	ankle_angle_l	subtalar_angle_l	mtp_angle_l	lumbar_extension	lumbar_bending	lumbar_rotation	arm_flex_r	arm_add_r	arm_rot_r	elbow_flex_r	pro_sup_r	wrist_flex_r	wrist_dev_r	arm_flex_l	arm_add_l	arm_rot_l	elbow_flex_l	pro_sup_l	wrist_flex_l	wrist_dev_l
     26.72000000	     -2.14941504	     -1.79977416	      4.09358697	      0.77953246	      0.90598769	      0.29835026	     22.29700740	    -10.16674751	      0.55142390	     60.58699365	     60.58699365	      3.37566884	    -18.30229656	     -7.41667777	     21.25720428	      0.83321575	     -3.96661996	     36.93645491	     36.93645491	     21.80955963	    -18.85455466	     12.59018495	    -11.37798007	      8.92026215	      3.89869082	     16.46945877	    -15.20567664	    -11.78897435	     35.98638254	     46.55157871	      0.00000000	      0.00000000	     30.06176314	    -18.69781663	     11.81567333	     45.47504017	     46.48765620	      0.00000000	      0.00000000
     26.74485714	     -2.13956758	     -2.23852314	      2.96649188	      0.77747935	      0.90617541	      0.29788215	     23.87275365	     -9.40454680	      1.32768595	     62.54466563	     62.54466563	      4.13926571	    -17.69421870	     -0.86024971	     21.08606969	      0.18827026	     -4.58939861	     37.19638652	     37.19638652	     22.80344823	    -18.91077979	     14.38129099	    -11.85313253	      9.33782055	      3.47527946	     12.62094244	    -14.30288005	    -13.89696369	     33.79122290	     46.69392194	      0.00000000	      0.00000000	     31.85439943	    -19.35147319	      7.09522534	     48.46499541	     46.98526338	      0.00000000	      0.00000000
     26.76971429	     -2.27796777	     -2.56713894	      1.73491832	      0.77539685	      0.90678874	      0.29796975	     25.25869021	     -8.89866890	      1.98510884	     63.46766063	     63.46766063	      3.40697857	    -17.37366032	     -0.59333514	     20.82031598	     -0.42308077	     -5.46175847	     36.99393898	     36.99393898	     23.00181410	    -18.98162262	     14.47744458	    -12.09166435	      9.54755642	      3.40781302	      8.51130232	    -13.91615757	    -14.03848471	     31.86881390	     46.74119637	      0.00000000	      0.00000000	     34.27278745	    -20.34124384	      5.90872547	     50.17882451	     47.13455854	      0.00000000	      0.00000000
     26.79457143	     -2.39367316	     -2.99302508	      0.45985406	      0.77334811	      0.90814838	      0.29872502	     26.36293679	     -8.23643954	      2.59047498	     63.60510644	     63.60510644	      3.23627067	    -16.62707791	     -0.40625486	     20.35385448	     -1.17029405	     -6.33227839	     36.50988779	     36.50988779	     23.14983721	    -19.00650224	     14.65560131	    -12.40477379	      9.81612728	      3.41566338	      4.45582640	    -13.54330987	    -14.31595141	     30.30300784	     46.77994863	      0.00000000	      0.00000000	     36.32416154	    -21.12953979	      3.91022892	     52.38737060	     47.35213442	      0.00000000	      0.00000000
     26.81942857	     -2.63212830	     -3.33806436	     -0.87477898	      0.77116114	      0.91004278	      0.30007662	     27.35730437	     -7.64715323	      3.17825137	     62.87573576	     62.87573576	      3.51486466	    -15.41149899	     -0.80394027	     19.85292045	     -1.87512808	     -7.35818784	     35.72804471	     35.72804471	     23.05711010	    -19.00857572	     14.75203984	    -12.61413051	      9.96101763	      3.32467479	      0.56968372	    -13.14359434	    -14.50104609	     29.11211944	     46.79885200	      0.00000000	      0.00000000	     38.13359164	    -22.00250803	      1.80996306	     54.57796056	     47.56432624	      0.00000000	      0.00000000
     26.84428571	     -2.96850787	     -3.75547799	     -2.23569454	      0.76890953	      0.91234728	      0.30201354	     28.12981762	     -6.99320705	      3.58303757	     61.09623708	     61.09623708	      3.67402836	    -14.13554047	     -3.04413912	     19.31017152	     -2.68809694	     -8.43788623	     34.70876233	     34.70876233	     22.76940074	    -18.99102960	     14.58571504	    -12.72956986	     10.19740054	      2.67561225	     -3.04153934	    -12.72922390	    -14.74721656	     29.15698226	     46.75079480	      0.00000000	      0.00000000	     38.94091342	    -22.79107396	     -2.80100068	     57.76262286	     47.95799842	      0.00000000	      0.00000000
     26.86914286	     -3.56012846	     -4.18635408	     -3.62507880	      0.76629791	      0.91463996	      0.30474686	     28.97374821	     -6.14111294	      4.00437848	     58.51848575	     58.51848575	      4.66271448	    -12.68089308	     -3.53925813	     19.03568744	     -3.56993127	     -9.51421534	     33.68192483	     33.68192483	     22.54323341	    -18.94671947	     14.87644375	    -12.50535936	     10.40306890	      2.21056750	     -6.08992064	    -12.37091814	    -14.76350294	     28.09016773	     46.76828258	      0.00000000	      0.00000000	     40.62381661	    -24.45733547	     -3.52992329	     58.55971639	     48.03776525	      0.00000000	      0.00000000
     26.89400000	     -3.88987941	     -4.42378331	     -5.08613413	      0.76403313	      0.91764488	      0.30768673	     28.96790833	     -5.80605033	      3.92646657	     54.39206202	     54.39206202	      4.23753210	    -10.85896662	     -9.90380828	     18.10623267	     -4.19307020	    -10.80373235	     32.03909448	     32.03909448	     21.82113789	    -18.91464426	     14.12961334	    -12.76583981	     10.34205525	      2.47533037	    -10.01574649	    -12.25408905	    -14.14554590	     29.15251388	     46.60524769	      0.00000000	      0.00000000	     41.38219604	    -24.46608984	     -7.06790596	     62.69491754	     48.32744268	      0.00000000	      0.00000000
     26.91885714	     -4.57469634	     -4.80207592	     -6.50026599	      0.76132952	      0.92013837	      0.31147801	     29.16539576	     -5.00137671	      3.83776241	     49.77749952	     49.77749952	      5.35118319	     -8.56762632	    -10.45618544	     17.72031783	     -5.04222789	    -11.94765416	     30.70415861	     30.70415861	     21.47767810	    -18.85226132	     14.49980180	    -12.48317493	     10.48209688	      2.40515381	    -12.66108074	    -11.98409603	    -14.05980108	     28.30104361	     46.60906643	      0.00000000	      0.00000000	     42.83224444	    -25.64043619	     -7.59499452	     63.65499753	     48.38813456	      0.00000000	      0.00000000
     26.94371429	     -5.13165127	     -4.86699719	     -7.91653953	      0.75874038	      0.92248113	      0.31553196	     28.84728646	     -4.74189002	      3.14378369	     44.20084672	     44.20084672	      5.86161419	     -5.11138275	    -12.51003851	     17.12113977	     -5.53442393	    -13.21397974	     29.23035602	     29.23035602	     20.86780615	    -18.83062336	     14.23523601	    -12.40529039	     10.16650981	      2.87739800	    -15.74556495	    -11.66648685	    -13.57606416	     28.74294182	     46.51206457	      0.00000000	      0.00000000	     44.09164557	    -25.87567044	     -8.74792174	     66.26954092	     48.50210284	      0.00000000	      0.00000000
     26.96857143	     -5.68349525	     -5.04951084	     -9.25122651	      0.75620812	      0.92443546	      0.32028174	     28.07786614	     -4.07311699	      2.42943340	     37.95508124	     37.95508124	      6.01936480	     -2.04049990	    -12.99232234	     16.58204215	     -6.21270495	    -14.44497429	     27.94375657	     27.94375657	     20.22320889	    -18.76898061	     13.56699937	    -12.30908590	     10.04460716	      2.85756852	    -18.57639653	    -11.53283251	    -12.35405320	     30.61073787	     46.29551021	      0.00000000	      0.00000000	     44.98299172	    -26.68780730	    -10.21252729	     68.38855649	     48.60156815	      0.00000000	      0.00000000
     26.99342857	     -6.34175787	     -5.18636590	    -10.46385011	      0.75372978	      0.92569043	      0.32553221	     27.09534371	     -3.21548518	      1.78846003	     31.39509841	     31.39509841	      5.86377574	      0.82937806	    -11.70602015	     16.32068182	     -6.88034306	    -15.47194665	     26.99092140	     26.99092140	     19.99004495	    -18.66552546	     13.75390201	    -11.93172840	      9.87039986	      2.88085729	    -20.23097098	    -11.14285455	    -12.17823284	     30.32115043	     46.27869374	      0.00000000	      0.00000000	     46.22734153	    -27.42312585	    -10.50596186	     69.28507391	     48.64028415	      0.00000000	      0.00000000
     27.01828571	     -6.65010098	     -4.93388123	    -11.55730030	      0.75176705	      0.92635666	      0.33077895	     25.88764444	     -3.07578177	      0.06470539	     25.47038564	     25.47038564	      6.05997936	      6.01810601	     -8.39873497	     15.76658392	     -7.06434291	    -16.59614234	     26.13437590	     26.13437590	     19.67481099	    -18.62926308	     13.31114180	    -11.89613776	      9.21097697	      3.26113425	    -22.27438537	    -10.73639108	    -11.56865844	     31.29432341	     46.16938022	      0.00000000	      0.00000000	     47.38289024	    -27.61579462	    -11.04723200	     71.25017730	     48.70373362	      0.00000000	      0.00000000
